<?xml version="1.0" standalone="no"?>
<!DOCTYPE svg PUBLIC "-//W3C//DTD SVG 20010904//EN"
 "http://www.w3.org/TR/2001/REC-SVG-20010904/DTD/svg10.dtd">
<svg version="1.0" xmlns="http://www.w3.org/2000/svg"
 width="96.000000pt" height="96.000000pt" viewBox="0 0 96.000000 96.000000"
 preserveAspectRatio="xMidYMid meet">
<metadata>
Created by potrace 1.14, written by Peter Selinger 2001-2017
</metadata>
<g transform="translate(0.000000,96.000000) scale(0.100000,-0.100000)"
fill="#000000" stroke="none">
<path d="M145 817 l-25 -9 0 -324 0 -324 23 -14 c34 -21 674 -18 687 4 6 9 10
150 10 331 0 281 -2 318 -16 330 -13 11 -82 14 -335 14 -175 0 -330 -4 -344
-8z m50 -56 c1 -11 -6 -22 -16 -24 -22 -6 -29 1 -29 29 0 41 42 36 45 -5z m81
30 c13 -1 13 -51 0 -53 -33 -4 -42 -1 -47 17 -8 28 -1 44 19 40 9 -2 22 -4 28
-4z m95 -5 c0 -6 2 -19 4 -28 2 -10 -2 -18 -8 -19 -7 0 -20 -2 -29 -4 -10 -2
-18 0 -19 3 0 4 -2 15 -4 24 -3 19 16 35 41 35 8 0 14 -5 15 -11z m90 2 c6
-41 2 -51 -19 -53 -13 -1 -26 3 -30 9 -9 15 -9 40 0 46 11 9 48 7 49 -2z m90
3 c8 -1 5 -33 -4 -48 -4 -6 -15 -10 -25 -8 -9 2 -20 4 -23 4 -5 1 -5 18 0 52
1 5 18 5 52 0z m86 -4 c12 -13 12 -37 0 -44 -32 -20 -60 -2 -51 33 5 20 35 26
51 11z m94 4 c11 -2 5 -51 -6 -52 -5 0 -18 -2 -27 -4 -18 -3 -20 1 -20 30 0
33 -1 33 53 26z m77 -30 c-4 -31 -30 -35 -39 -6 -8 30 0 43 22 38 15 -4 19
-13 17 -32z m-5 -60 c4 -1 6 -101 5 -223 l-3 -223 -325 0 -325 0 -3 219 c-1
127 2 222 7 225 7 5 606 6 644 2z m-611 -495 c6 -32 -4 -48 -25 -40 -23 8 -22
51 1 57 9 3 18 5 18 6 1 0 4 -10 6 -23z m92 -10 c-1 -9 -2 -20 -3 -26 0 -5
-11 -8 -23 -6 -13 3 -26 5 -30 5 -11 1 -5 44 6 53 15 10 51 -8 50 -26z m88 25
c3 -1 5 -9 3 -18 -2 -10 -4 -23 -4 -28 -1 -13 -50 -15 -52 -3 -1 4 -1 15 -1
23 0 33 -1 33 54 26z m92 -24 c-1 -12 -3 -25 -3 -29 -1 -3 -9 -5 -18 -3 -10 2
-23 4 -29 4 -11 1 -12 29 -1 47 3 6 17 9 30 7 17 -3 23 -11 21 -26z m81 24
c14 -1 15 -51 1 -52 -6 0 -19 -2 -28 -4 -18 -3 -20 0 -20 35 0 28 0 29 20 25
9 -2 22 -4 27 -4z m96 -3 c6 -44 2 -52 -24 -53 -16 -1 -27 3 -28 12 -1 7 -2
19 -3 26 -1 6 2 14 6 17 11 9 48 7 49 -2z m89 3 c8 -1 9 -51 1 -52 -54 -7 -53
-7 -53 26 0 32 3 34 52 26z m78 -32 c-4 -34 -43 -33 -43 1 0 26 23 44 38 30 5
-4 7 -18 5 -31z"/>
<path d="M407 599 c-14 -9 -17 -26 -17 -118 0 -151 -2 -150 150 -64 96 55 97
71 3 124 -32 17 -72 40 -88 50 -22 13 -35 15 -48 8z"/>
</g>
</svg>
